<svg width="12" height="10" viewBox="0 0 12 10" fill="none" xmlns="http://www.w3.org/2000/svg">
<path d="M7.26624 7.26624V8.31061C7.26624 8.58759 7.1562 8.85323 6.96035 9.04909C6.76449 9.24495 6.49885 9.35498 6.22186 9.35498H2.04437C1.76739 9.35498 1.50175 9.24495 1.30589 9.04909C1.11003 8.85323 1 8.58759 1 8.31061V2.04437C1 1.76739 1.11003 1.50175 1.30589 1.30589C1.50175 1.11003 1.76739 1 2.04437 1H6.01299C6.58974 1 7.26624 1.46762 7.26624 2.04437V3.08875" stroke="black" stroke-linecap="round" stroke-linejoin="round"/>
<path d="M8.93701 7.26636L11.0258 5.17761L8.93701 3.08887" stroke="black" stroke-linecap="round" stroke-linejoin="round"/>
<path d="M3.92432 5.17725H10.6083" stroke="black" stroke-linecap="round" stroke-linejoin="round"/>
</svg>
