<svg width="10" height="10" viewBox="0 0 10 10" fill="none" xmlns="http://www.w3.org/2000/svg">
<path fill-rule="evenodd" clip-rule="evenodd" d="M0.790132 4.74877C0.790132 7.05634 2.46322 8.62824 4.34198 8.95358C4.55696 8.99079 4.70107 9.19523 4.66384 9.41028C4.62662 9.62525 4.42216 9.76935 4.20717 9.73213C2.00008 9.34994 0 7.4897 0 4.74877C-7.58014e-07 3.58395 0.529943 2.66854 1.14881 1.97216C1.59213 1.47332 2.09932 1.06829 2.50722 0.758015H1.2668C1.05748 0.758015 0.887794 0.588325 0.887794 0.379007C0.887794 0.169689 1.05748 0 1.2668 0H3.54085C3.75016 0 3.91985 0.169689 3.91985 0.379007V2.65305C3.91985 2.86237 3.75016 3.03206 3.54085 3.03206C3.33153 3.03206 3.16184 2.86237 3.16184 2.65305V1.25408L3.16069 1.25495C2.72751 1.58166 2.19805 1.98096 1.73942 2.49704C1.1978 3.10649 0.790132 3.84277 0.790132 4.74877ZM9.20992 5.05686C9.20992 2.77367 7.57231 1.21099 5.7177 0.862825C5.50325 0.822567 5.36205 0.616091 5.40231 0.401642C5.44257 0.187199 5.64904 0.0459963 5.86348 0.0862545C8.0422 0.495279 10 2.34532 10 5.05686C10 6.22168 9.47007 7.13707 8.85123 7.83346C8.40787 8.33231 7.90068 8.73732 7.49279 9.04765H8.73328C8.94257 9.04765 9.11229 9.21729 9.11229 9.42665C9.11229 9.63594 8.94257 9.80566 8.73328 9.80566H6.4592C6.24988 9.80566 6.08019 9.63594 6.08019 9.42665V7.15261C6.08019 6.94325 6.24988 6.77357 6.4592 6.77357C6.66852 6.77357 6.83821 6.94325 6.83821 7.15261V8.55153L6.8394 8.55062C7.27259 8.22391 7.80199 7.82467 8.26058 7.30861C8.80226 6.69914 9.20992 5.96286 9.20992 5.05686Z" fill="black"/>
</svg>
