<svg width="34" height="35" viewBox="0 0 34 35" fill="none" xmlns="http://www.w3.org/2000/svg">
<path d="M33.9987 17.0102C34.0005 14.1802 33.2958 11.3945 31.9484 8.90579C30.601 6.41711 28.6535 4.3042 26.2828 2.75871C23.912 1.21322 21.1929 0.284068 18.3722 0.0555261C15.5514 -0.173016 12.7182 0.306289 10.1295 1.44996C7.54092 2.59364 5.27876 4.36549 3.5483 6.6048C1.81783 8.8441 0.673802 11.48 0.219989 14.2734C-0.233823 17.0668 0.0169389 19.9293 0.94953 22.6012C1.88212 25.2732 3.46703 27.67 5.56049 29.5744C5.60188 29.6235 5.65008 29.6665 5.70362 29.702C8.81221 32.4763 12.8331 34.0096 16.9996 34.0096C21.1662 34.0095 25.187 32.4761 28.2955 29.7017C28.3487 29.6663 28.3967 29.6235 28.4379 29.5746C30.1901 27.9842 31.5901 26.0447 32.5478 23.8808C33.5055 21.7169 33.9997 19.3765 33.9987 17.0102ZM1.35995 17.0102C1.35816 14.439 1.99033 11.907 3.20048 9.63846C4.41063 7.36987 6.16144 5.43464 8.29791 4.00409C10.4344 2.57353 12.8906 1.69179 15.4491 1.43693C18.0076 1.18206 20.5895 1.56193 22.9662 2.5429C25.3429 3.52387 27.4411 5.07569 29.075 7.06097C30.7089 9.04624 31.8281 11.4037 32.3336 13.9247C32.839 16.4457 32.7152 19.0525 31.9729 21.5142C31.2306 23.9759 29.8929 26.2166 28.0781 28.038C26.3902 25.2114 23.682 23.1402 20.512 22.2514C21.9854 21.4676 23.1543 20.2137 23.8328 18.6891C24.5114 17.1645 24.6606 15.4568 24.2567 13.8376C23.8529 12.2184 22.9191 10.7808 21.6041 9.75347C20.289 8.72612 18.6681 8.16805 16.9994 8.16805C15.3306 8.16805 13.7097 8.72612 12.3946 9.75347C11.0796 10.7808 10.1458 12.2184 9.74198 13.8376C9.33812 15.4568 9.48734 17.1645 10.1659 18.6891C10.8445 20.2137 12.0134 21.4676 13.4867 22.2514C10.3167 23.1402 7.60859 25.2114 5.92064 28.0379C4.47349 26.5894 3.32587 24.8699 2.54334 22.9777C1.76081 21.0856 1.35869 19.0578 1.35995 17.0102ZM16.9994 21.77C15.789 21.77 14.6058 21.4111 13.5994 20.7386C12.593 20.0662 11.8086 19.1104 11.3454 17.9922C10.8822 16.8739 10.761 15.6434 10.9972 14.4563C11.2333 13.2692 11.8162 12.1788 12.672 11.3229C13.5279 10.467 14.6183 9.88419 15.8055 9.64806C16.9926 9.41192 18.2231 9.53312 19.3413 9.99631C20.4595 10.4595 21.4153 11.2439 22.0878 12.2503C22.7602 13.2567 23.1191 14.4399 23.1191 15.6502C23.1173 17.2727 22.472 18.8283 21.3247 19.9755C20.1774 21.1228 18.6219 21.7682 16.9994 21.77ZM6.94675 28.9806C7.95595 27.2041 9.4179 25.7268 11.1837 24.6991C12.9496 23.6714 14.9562 23.13 16.9993 23.13C19.0425 23.13 21.0491 23.6714 22.8149 24.6991C24.5808 25.7269 26.0427 27.2042 27.0519 28.9807C24.2382 31.3502 20.6778 32.6496 16.9993 32.6496C13.3208 32.6496 9.76047 31.3501 6.94675 28.9806Z" fill="black"/>
</svg>
